<svg width="49" height="49" viewBox="0 0 49 49" fill="none" xmlns="http://www.w3.org/2000/svg">
<path d="M4.92024 7.83132C4.0127 5.59539 6.06461 3.46272 8.34465 4.25294C16.0744 6.93195 30.7681 12.6755 43.6683 21.4366C45.8534 22.9207 45.8534 26.08 43.6683 27.5641C30.7681 36.3252 16.0744 42.0688 8.34464 44.7478C6.06461 45.538 4.0127 43.4053 4.92024 41.1694C6.86978 36.3662 9.09807 31.7571 10.2069 29.5258C10.6553 28.6235 11.437 27.9386 12.3844 27.5955L20.9314 24.5004L12.3844 21.4052C11.437 21.0621 10.6553 20.3772 10.2069 19.4749C9.09807 17.2436 6.86978 12.6345 4.92024 7.83132Z" stroke="black" stroke-width="3" stroke-linejoin="round"/>
</svg>
