<svg width="31" height="30" viewBox="0 0 31 30" fill="none" xmlns="http://www.w3.org/2000/svg">
<g clip-path="url(#clip0_2331_1362)">
<path d="M15.5058 29.9997C15.5058 29.9997 15.502 29.9997 15.4935 29.9997C14.9924 29.9997 -0.85599 29.919 0.594092 20.9424C0.603582 20.8799 0.614021 20.8174 0.625409 20.754C0.647237 20.6349 0.67286 20.5138 0.70133 20.3908C0.755423 20.1583 0.810466 19.9267 0.866457 19.6942C0.902519 19.5462 0.938582 19.3982 0.975593 19.2512C1.00976 19.1147 1.04392 18.9783 1.07903 18.8409C1.11225 18.7112 1.14547 18.5815 1.17963 18.4527C1.18058 18.4479 1.18248 18.444 1.18343 18.4392C1.24701 18.1971 1.31249 17.9549 1.38082 17.7138C1.38936 17.6811 1.3979 17.6484 1.40739 17.6158C1.90182 15.8487 2.48736 14.1075 3.20481 12.4221C3.98774 10.5859 4.97376 8.93506 6.11921 7.30827C7.78377 4.94544 9.75106 2.35968 12.2536 0.855885C13.2197 0.274546 14.368 -0.0905927 15.5001 0.0189489C16.6323 -0.0905927 17.7797 0.274546 18.7457 0.855885C21.2483 2.35968 23.2156 4.94544 24.8801 7.30827C26.0256 8.93506 27.0116 10.5859 27.7936 12.4221C28.6818 14.5044 29.3661 16.6722 29.9269 18.8697C29.9858 19.0974 30.0427 19.3261 30.0987 19.5548C30.1006 19.5596 30.1016 19.5644 30.1025 19.5692C30.1348 19.7019 30.167 19.8345 30.1984 19.9671C30.2126 20.0276 30.2278 20.0872 30.2411 20.1477C30.261 20.2284 30.279 20.3101 30.298 20.3908C32.4978 29.9161 16.0173 29.9997 15.5058 29.9997Z" fill="url(#paint0_radial_2331_1362)"/>
<circle cx="19.5001" cy="8.00006" r="2" fill="#D7D9FF"/>
<path d="M15.5055 29.9998C15.5055 29.9998 15.5017 29.9998 15.4931 29.9998C14.9921 29.9998 -0.856356 29.9191 0.593726 20.9424C0.603216 20.88 0.613655 20.8175 0.625043 20.7541C0.64687 20.6349 0.672493 20.5139 0.700964 20.3909C0.755057 20.1583 0.810099 19.9268 0.866091 19.6942C0.902153 19.5462 0.938215 19.3983 0.975227 19.2512C1.00939 19.1148 1.04356 18.9784 1.07867 18.8409C1.11188 18.7112 1.1451 18.5815 1.17926 18.4527C1.18021 18.4479 1.18211 18.4441 1.18306 18.4393C1.24664 18.1971 1.31212 17.955 1.38045 17.7138C1.41557 17.6869 1.45163 17.66 1.48674 17.6331C3.15699 16.3686 5.1072 14.6486 5.62346 13.1842C7.20166 8.71027 10.3381 11.2614 11.6126 12.5644C12.0179 12.9785 12.6499 13.0612 13.1405 12.7566C13.802 12.3453 14.7216 11.5516 15.6298 10.0363C16.3074 8.90629 17.7148 8.45947 18.8906 9.03313C20.7914 9.96135 23.9953 12.3367 29.2537 18.0847C29.4967 18.3509 29.7216 18.6123 29.9266 18.8698C29.9854 19.0975 30.0424 19.3262 30.0983 19.5549C30.1002 19.5597 30.1012 19.5645 30.1021 19.5693C30.1344 19.7019 30.1667 19.8345 30.198 19.9671C30.2122 20.0276 30.2274 20.0872 30.2407 20.1478C30.2606 20.2285 30.2787 20.3101 30.2976 20.3909C32.4974 29.9162 16.017 29.9998 15.5055 29.9998Z" fill="#8589EB"/>
<path opacity="0.15" d="M15.5055 30C15.5055 30 15.5017 30 15.4931 30C14.9921 30 -0.856356 29.9193 0.593726 20.9426C0.603216 20.8802 0.613655 20.8177 0.625043 20.7543C0.64687 20.6351 0.672493 20.5141 0.700964 20.3911C0.755057 20.1585 0.810099 19.9269 0.866091 19.6944C0.902153 19.5464 0.938215 19.3985 0.975227 19.2514C1.73728 19.0929 2.57146 19.1986 3.20065 20.0182C3.26328 20.0989 3.32592 20.1787 3.39045 20.2565C3.72165 20.6563 4.08417 21.0108 4.48845 21.2837C4.77695 21.4788 5.08632 21.6325 5.42132 21.7315C6.0192 21.9093 6.69869 21.9131 7.48067 21.671C8.45909 21.3692 9.59885 20.6822 10.9445 19.4667C14.9797 15.822 20.651 18.4722 22.5044 20.9023C23.666 22.4243 26.0897 22.0976 27.6774 21.6335C27.9612 21.5509 28.2411 21.4576 28.5135 21.3491C28.7735 21.2453 29.0279 21.129 29.2727 20.9945C29.3259 20.9657 29.379 20.9359 29.4312 20.9051C29.5754 20.8206 29.7159 20.7303 29.8535 20.6322C29.9797 20.5419 30.1069 20.442 30.179 20.3036C30.2056 20.2546 30.2236 20.2018 30.2407 20.148C30.2606 20.2287 30.2787 20.3103 30.2976 20.3911C32.4974 29.9164 16.017 30 15.5055 30Z" fill="white"/>
<path opacity="0.15" d="M15.5055 30.0001C15.5055 30.0001 15.5017 30.0001 15.4931 30.0001C14.9921 30.0001 -0.856356 29.9194 0.593726 20.9427C0.603216 20.8803 0.613655 20.8178 0.625043 20.7544C0.64687 20.6352 0.672493 20.5142 0.700964 20.3912C0.755057 20.1586 0.810099 19.9271 0.866091 19.6945C0.902153 19.5466 0.938215 19.3986 0.975227 19.2516C1.00939 19.1151 1.04356 18.9787 1.07867 18.8413C1.11188 18.7115 1.1451 18.5818 1.17926 18.4531C1.18021 18.4483 1.18211 18.4444 1.18306 18.4396C1.24664 18.1975 1.31212 17.9553 1.38045 17.7141C1.38899 17.6815 1.39753 17.6488 1.40702 17.6161C1.4336 17.6219 1.46017 17.6276 1.48674 17.6334C1.86824 17.7228 2.24784 17.8967 2.61416 18.184C3.20065 18.6443 3.75297 19.3947 4.21988 20.5507C4.29865 20.7448 4.37552 20.9514 4.44859 21.1695C4.46188 21.2079 4.47421 21.2454 4.48845 21.2838C4.90506 22.4744 5.59879 23.7226 6.77745 24.2367C6.89323 24.2876 7.01471 24.3308 7.13997 24.3664C8.67072 24.7998 10.4103 23.9542 11.5984 23.025C11.9809 22.7261 12.3348 22.3889 12.7363 22.1179C15.4172 20.3066 18.7387 23.0413 20.3501 25.039C20.4251 25.1322 20.4991 25.2264 20.5722 25.3206C20.8474 25.677 21.1302 25.9586 21.4187 26.1709C23.9592 28.0533 26.903 24.6671 28.839 21.6826C28.9909 21.4501 29.1351 21.2195 29.2727 20.9946C29.4862 20.6477 29.6827 20.3133 29.8611 20.0001C29.937 19.8665 30.0091 19.7368 30.0784 19.6129C30.086 19.5984 30.0946 19.584 30.1021 19.5696C30.1344 19.7022 30.1667 19.8348 30.198 19.9674C30.2122 20.028 30.2274 20.0875 30.2407 20.1481C30.2606 20.2288 30.2787 20.3105 30.2976 20.3912C32.4974 29.9165 16.017 30.0001 15.5055 30.0001Z" fill="white"/>
<path opacity="0.15" d="M15.5055 30C15.5055 30 15.5017 30 15.4931 30C14.9921 30 -0.856356 29.9192 0.593726 20.9426C1.29694 20.5256 2.34464 20.0749 3.39045 20.2565C3.66946 20.3055 3.94846 20.3987 4.21988 20.5506C4.64504 20.7869 5.05406 21.1646 5.42132 21.7315C5.63011 22.0534 5.8256 22.4368 6.00306 22.8894C6.19476 23.3813 6.45195 23.8464 6.77745 24.2365C7.29466 24.8573 7.98459 25.2878 8.86052 25.3368C10.2565 25.4146 11.531 24.6718 12.6385 23.9079C15.1572 22.1716 17.3029 25.3175 19.8586 25.9642C20.4014 26.1016 20.9215 26.166 21.4187 26.1708C24.2676 26.2006 26.3593 24.2634 27.5692 22.7231C27.9944 22.1822 28.3114 21.6902 28.5135 21.3491C28.6891 21.0531 28.7792 20.8715 28.7792 20.8715C28.7792 20.8715 29.1958 20.1633 29.8611 20C29.8829 19.9932 29.9057 19.9884 29.9285 19.9846C30.0148 19.9683 30.105 19.9625 30.198 19.9673C30.2122 20.0278 30.2274 20.0874 30.2407 20.148C30.2606 20.2287 30.2787 20.3103 30.2976 20.3911C32.4974 29.9164 16.017 30 15.5055 30Z" fill="white"/>
<path opacity="0.15" d="M15.5055 30.0001C15.5055 30.0001 15.5017 30.0001 15.4931 30.0001C14.9921 30.0001 -0.856356 29.9194 0.593726 20.9427C0.603216 20.8802 0.613655 20.8178 0.625043 20.7544C0.64687 20.6352 0.672493 20.5141 0.700964 20.3912C0.755057 20.1586 0.810099 19.927 0.866091 19.6945C0.902153 19.5465 0.938215 19.3985 0.975227 19.2515C1.00939 19.1151 1.04356 18.9786 1.07867 18.8412C1.11188 18.7115 1.1451 18.5818 1.17926 18.453C1.18021 18.4482 1.18211 18.4444 1.18306 18.4396C1.64997 18.306 2.13586 18.2099 2.61416 18.184C3.92379 18.1119 5.17363 18.5645 5.81326 20.199C6.13593 21.0244 6.72051 21.451 7.48067 21.6711C7.89349 21.7912 8.35755 21.8498 8.86052 21.8776C10.2565 21.9555 11.3887 20.9379 12.6385 20.4488C18.4351 18.1811 19.9592 21.844 22.4209 22.7934C24.7203 23.6803 26.3877 23.4016 27.5692 22.7232C28.0798 22.4302 28.4993 22.0631 28.839 21.6826C29.0725 21.4231 29.268 21.157 29.4312 20.9052C29.6571 20.5545 29.8203 20.2307 29.9285 19.9847C30.0015 19.8204 30.0509 19.6916 30.0784 19.6128C30.087 19.5888 30.0936 19.5696 30.0983 19.5552C30.1002 19.56 30.1012 19.5648 30.1021 19.5696C30.1344 19.7022 30.1667 19.8348 30.198 19.9674C30.2122 20.0279 30.2274 20.0875 30.2407 20.148C30.2606 20.2288 30.2787 20.3104 30.2976 20.3912C32.4974 29.9165 16.017 30.0001 15.5055 30.0001Z" fill="white"/>
</g>
<defs>
<radialGradient id="paint0_radial_2331_1362" cx="0" cy="0" r="1" gradientUnits="userSpaceOnUse" gradientTransform="translate(15.5 14.9998) scale(14.9075 15.0942)">
<stop offset="2.23767e-07" stop-color="#8485E0"/>
<stop offset="1" stop-color="#7680FC"/>
</radialGradient>
<clipPath id="clip0_2331_1362">
<rect width="30" height="30" fill="white" transform="translate(0.5)"/>
</clipPath>
</defs>
</svg>
