<svg width="415" height="896" viewBox="0 0 415 896" fill="none" xmlns="http://www.w3.org/2000/svg">
<g clip-path="url(#clip0_2362_10)">
<rect width="414" height="896" transform="translate(0.5)" fill="#8E97FD"/>
<circle cx="207.5" cy="615" r="246" fill="#9AA2FD"/>
<circle cx="207.5" cy="615" r="246" fill="#949DFF"/>
<circle cx="207.5" cy="615" r="211" fill="#9AA2FD"/>
<circle cx="207.5" cy="615" r="211" fill="#99A1FF"/>
<circle cx="207.5" cy="615" r="177" fill="#9AA2FD"/>
<circle cx="207.5" cy="615" r="177" fill="#9EA6FF"/>
<path d="M296.9 424C295.329 415.773 286.645 411.573 282.5 410.502C292.449 407.931 297.118 415.858 298.209 420.143C309.205 413.973 316.318 418.001 318.5 420.786C310.122 418.215 300.609 421.857 296.9 424Z" fill="#B4BAFF"/>
<path d="M62.3 440C61.34 435.299 56.0333 432.899 53.5 432.287C59.58 430.818 62.4333 435.348 63.1 437.796C69.82 434.27 74.1667 436.572 75.5 438.164C70.38 436.694 64.5667 438.776 62.3 440Z" fill="#B4BAFF"/>
<circle cx="207.5" cy="615" r="142" fill="#A3ABFF"/>
<rect x="-1.5" y="654" width="416" height="266" fill="#8C96FF"/>
<path d="M67.0835 622L-8.5 655H421.5L347.998 622H67.0835Z" fill="#8C96FF"/>
<path d="M180.98 560.64L166.7 583.84L194.09 616.37H221.71L247.46 583.29L231.52 560.64H180.98Z" fill="#3F4553"/>
<path d="M166.7 583.84C166.7 583.84 105.27 588.59 89.8599 604.68C74.4499 620.77 81.6999 638.24 96.7099 638.24C124.34 638.24 182.8 639.93 210.46 638.24L212.11 600.57L166.7 583.84Z" fill="#3F4553"/>
<path d="M245.87 583.04C245.87 583.04 310.2 588.59 325.61 604.68C341.02 620.77 332.14 631.43 318.76 638.24C299.93 647.83 232.06 646.24 196.86 634.59L203.37 600.57L245.87 583.04Z" fill="#3F4553"/>
<path d="M248.7 614.64L244.35 603.4L249.77 600.99C249.77 600.99 249.02 594.34 255.65 593.06C262.28 591.78 270.18 596.06 277.88 592.61C284.98 589.43 293.67 586.5 301.78 590.9C302.98 591.55 303.54 592.98 303.13 594.28L303.1 594.38C302.69 595.69 301.41 596.5 300.04 596.36C297.18 596.07 292.08 596.13 287.04 599.18C278.35 604.46 248.7 614.64 248.7 614.64Z" fill="#FEBBA0"/>
<path d="M299.31 615.28C299.31 615.28 256.38 607.65 165.95 606.47L157.22 618.31C157.22 618.31 179.72 631.17 200.84 635.82C221.96 640.47 294.87 655.11 327.43 632.56L299.31 615.28Z" fill="#3F4553"/>
<path d="M200.84 635.83C179.19 630.83 156.54 618.01 156.54 618.01L157.89 615.72" stroke="#6E758F" stroke-width="1.5925" stroke-miterlimit="10" stroke-linecap="round"/>
<path d="M165.95 606.47C165.95 606.47 265.3 604.2 291.81 619.58" stroke="#6E758F" stroke-width="1.5925" stroke-miterlimit="10" stroke-linecap="round"/>
<path d="M117.18 612.91C117.18 612.91 135.32 604.41 147.72 609.98" stroke="#6E758F" stroke-width="1.5925" stroke-miterlimit="10" stroke-linecap="round"/>
<path d="M159.31 616.35L165.94 606.25L159.31 602.66C159.31 602.66 156.99 596.85 150.49 595.05C143.98 593.26 139.35 596.15 131.94 592.11C125.11 588.38 116.67 584.79 108.25 588.54C107.01 589.09 106.33 590.47 106.64 591.8L106.66 591.9C106.97 593.24 108.18 594.14 109.55 594.11C112.42 594.04 117.51 594.5 122.29 597.94C130.54 603.88 159.31 616.35 159.31 616.35Z" fill="#FEBBA0"/>
<path d="M216.39 606.83L243.55 604.16" stroke="#6E758F" stroke-width="1.5925" stroke-miterlimit="10" stroke-linecap="round"/>
<path d="M181.85 595.06L197 606.03" stroke="#6E758F" stroke-width="1.5925" stroke-miterlimit="10" stroke-linecap="round"/>
<path d="M177.94 445.77C178.58 452.03 184.03 456.59 190.11 455.97C196.19 455.35 200.6 449.77 199.96 443.52C199.32 437.26 193.87 432.7 187.79 433.32C181.72 433.93 177.31 439.51 177.94 445.77Z" fill="#3F4553"/>
<path d="M200.65 450.32C200.65 450.32 181.33 447.4 178.29 429.17C175.61 413.06 186.42 400.15 198.27 397.92C198.28 397.92 226.75 441.8 200.65 450.32Z" fill="#3F4553"/>
<path d="M201.09 399.65C199.67 400.35 198.32 401.27 197.09 402.46C186.08 413.05 193.05 433.61 202.91 442.89C208.37 448.02 216.35 450.41 223.32 447.79C233.51 443.96 236.7 432.42 234.63 422.14C233.09 414.48 228.84 407.25 222.57 402.75C216.3 398.26 207.83 396.36 201.09 399.65Z" fill="#FDBCA0"/>
<path d="M199.26 436.69C197.33 438.6 193.97 439.38 191.39 438.47C188.81 437.56 186.69 435.13 186.02 432.31C185.42 429.78 186.07 426.9 187.93 425.35C189.79 423.8 193.14 423.9 194.73 425.91L199.26 436.69Z" fill="#FDBCA0"/>
<path d="M196.44 429.97L198.47 466.31C198.74 473.03 204.19 478.37 210.91 478.5C218.67 478.66 224.76 471.88 223.77 464.18L219.67 430.44L196.44 429.97Z" fill="#FDBCA0"/>
<path d="M222.43 453.22L221.92 448.24C221.92 448.24 211.92 451.31 202.91 442.88C202.91 442.89 208.1 452.36 222.43 453.22Z" fill="#DF8370"/>
<path d="M192.47 424.48C205.49 423.81 217.37 415.07 223.93 403.81C223.93 403.81 211.95 392.44 194.44 399.09C179.93 404.59 192.47 424.48 192.47 424.48Z" fill="#3F4553"/>
<path d="M193.9 432.84C192.4 432.99 191.09 432.18 190.97 431.03C190.88 430.16 191.49 429.35 192.43 428.93" stroke="#444359" stroke-width="1.1144" stroke-miterlimit="10" stroke-linecap="round"/>
<path d="M225.18 430C225.48 429.09 226 428.37 226.58 427.69L226.86 428.57C226.2 428.32 225.84 427.94 225.47 427.57C225.12 427.18 224.81 426.79 224.53 426.37C223.97 425.54 223.5 424.66 223.16 423.73C223.86 424.44 224.5 425.17 225.17 425.87C225.51 426.21 225.83 426.56 226.18 426.86C226.51 427.15 226.9 427.45 227.17 427.52L227.98 427.71L227.45 428.4C226.91 429.11 226.31 429.77 225.48 430.25C225.38 430.31 225.26 430.27 225.2 430.18C225.17 430.11 225.17 430.05 225.18 430Z" fill="#444359"/>
<path d="M228.11 433.18C227.71 434 227.03 434.71 226.15 435.14C225.28 435.59 224.2 435.68 223.24 435.4C222.26 435.13 221.5 434.49 220.85 433.83C220.56 433.47 220.27 433.1 220.03 432.72C219.82 432.31 219.6 431.91 219.44 431.49C219.81 431.77 220.13 432.07 220.45 432.37L221.44 433.19C222.14 433.65 222.8 434.15 223.56 434.33C224.29 434.56 225.07 434.55 225.84 434.34C226.6 434.12 227.36 433.69 228.11 433.18Z" fill="#444359"/>
<path d="M217.64 420.11C218.03 421.27 218.25 422.47 218.17 423.76C218.12 424.39 217.97 425.08 217.5 425.69C217.02 426.31 216.21 426.58 215.5 426.56C214.77 426.55 214.05 426.23 213.56 425.78C213.05 425.33 212.65 424.81 212.35 424.26C211.75 423.15 211.37 421.99 211.18 420.77C211.15 420.58 211.28 420.4 211.47 420.36C211.65 420.33 211.81 420.44 211.86 420.6L211.87 420.62C212.21 421.7 212.66 422.79 213.24 423.73C213.82 424.64 214.61 425.48 215.54 425.45C216 425.47 216.43 425.35 216.69 425.02C216.98 424.7 217.12 424.18 217.2 423.65C217.35 422.58 217.25 421.4 217.07 420.27V420.25C217.04 420.09 217.16 419.93 217.32 419.91C217.45 419.89 217.59 419.98 217.64 420.11Z" fill="#444359"/>
<path d="M232.16 417.84C232.49 418.82 232.67 419.82 232.65 420.89C232.64 421.42 232.54 422 232.2 422.55C231.87 423.13 231.13 423.49 230.49 423.46C229.82 423.45 229.21 423.1 228.82 422.69C228.42 422.27 228.11 421.82 227.88 421.34C227.43 420.38 227.15 419.4 227.01 418.37C226.98 418.18 227.12 418 227.32 417.97C227.49 417.95 227.65 418.05 227.7 418.21L227.71 418.23C228 419.13 228.35 420.05 228.8 420.85C229.25 421.63 229.86 422.38 230.53 422.34C230.87 422.35 231.14 422.25 231.32 421.97C231.52 421.69 231.62 421.26 231.68 420.81C231.78 419.91 231.7 418.92 231.59 417.98V417.96C231.57 417.8 231.69 417.65 231.85 417.62C231.98 417.62 232.12 417.71 232.16 417.84Z" fill="#444359"/>
<path d="M242.96 469.61C242.87 463.51 223.09 458.63 223.09 458.63C221.85 460 219.72 462.31 210.75 462.31C202.17 462.31 198.74 460.09 197.4 458.63H188.91C187.02 458.63 185.29 459.71 184.5 461.43C167.49 498.64 177.05 540.2 180.97 560.63C181.33 562.51 216.83 561.24 232.84 562.51C236.3 562.8 243.3 491.78 242.96 469.61Z" fill="#FEE6C6"/>
<path d="M201.65 522.23C203.41 508.01 205.56 499.48 207.21 502.28C208.67 504.76 207.86 517.2 205.67 529.2C205.68 529.2 200.9 528.32 201.65 522.23Z" fill="#FEBBA0"/>
<path d="M213.27 522.23C211.51 508.01 209.36 499.48 207.71 502.28C206.25 504.76 207.06 517.2 209.25 529.2C209.24 529.2 214.02 528.32 213.27 522.23Z" fill="#FEBBA0"/>
<path d="M271.89 518.7H249.54L253.09 541.4L212.53 521.61C212.39 520.09 212.2 518.21 211.97 516.22C210.44 516.22 208.9 516.22 207.37 516.2C207.38 517.93 207.41 519.1 207.41 519.1C207.41 519.1 206.62 529.54 208.43 533.02C211.87 539.64 247.06 560.96 256.83 563.49C257.44 563.65 258.05 563.77 258.66 563.85C268.09 565.18 274.34 559.89 274.27 550.37L271.89 518.7Z" fill="#FEBBA0"/>
<path d="M202.55 516.12C202.2 518.36 201.89 520.52 201.65 522.23L162.26 540.47L163.92 518.71H141.57L139.2 550.4C139.14 559.92 145.39 565.2 154.81 563.88C155.42 563.79 156.03 563.67 156.64 563.52C166.41 560.99 199.14 543.3 206.13 532.98C208.2 529.93 207.22 519.66 207.22 519.66C207.22 519.66 207.22 518.24 207.18 516.22C205.64 516.19 204.1 516.16 202.55 516.12Z" fill="#FEBBA0"/>
<path d="M169.64 531.12C178.38 505.27 178.31 505.25 189.04 458.64C181.86 459.13 181.12 457.96 175.46 460.9C158.48 469.72 142.49 498.69 137.78 531.12H169.64Z" fill="#FEE6C6"/>
<path d="M247.46 528.57C242.32 510.26 223.09 458.64 223.09 458.64C242.32 457.99 268.56 483.06 274.84 525.22L247.46 528.57Z" fill="#FEE6C6"/>
<path d="M242.97 488.14L238.92 521.42" stroke="#EED2AD" stroke-width="1.5925" stroke-miterlimit="10" stroke-linecap="round"/>
<path d="M173.32 493.6L176.54 529.2" stroke="#EED2AD" stroke-width="1.5925" stroke-miterlimit="10" stroke-linecap="round"/>
<path d="M345.748 461.025C297.749 447.525 304.748 488.025 314.748 488.025C318.857 488.025 327.373 489.025 337.749 489.025H369.249C409.248 489.025 420.749 486.358 421.249 485.525C424.749 459.025 403.582 461.525 392.249 464.525C394.082 454.692 392.149 434.825 369.748 434.025C347.348 433.225 344.415 451.692 345.748 461.025Z" fill="#B4BAFF"/>
<path d="M8.25573 385.787C-12.7717 379.899 -9.70541 397.564 -5.3247 397.564C-3.5249 397.564 0.205866 398 4.75144 398H18.5509C36.0738 398 41.1117 396.837 41.331 396.473C42.8643 384.915 33.5916 386.005 28.6267 387.314C29.4299 383.025 28.5828 374.36 18.7696 374.011C8.95638 373.662 7.67151 381.717 8.25573 385.787Z" fill="#A6ADFB"/>
<circle cx="39.5" cy="363" r="6" fill="#A6ADFB"/>
<circle cx="3" cy="3" r="3" transform="matrix(1 0 0 -1 27.5 352)" fill="#A6ADFB"/>
</g>
<defs>
<clipPath id="clip0_2362_10">
<rect width="414" height="896" fill="white" transform="translate(0.5)"/>
</clipPath>
</defs>
</svg>
